<?xml version="1.0" encoding="UTF-8"?>
<svg xmlns="http://www.w3.org/2000/svg" xmlns:xlink="http://www.w3.org/1999/xlink" width="38px" height="38px" viewBox="0 0 38 38" version="1.1">
<g id="surface1">
<path style=" stroke:none;fill-rule:nonzero;fill:rgb(100%,11.372549%,14.509804%);fill-opacity:1;" d="M 28.085938 3.785156 C 23.425781 3.785156 19.582031 7.257812 19 11.757812 C 18.417969 7.257812 14.574219 3.785156 9.914062 3.785156 C 4.855469 3.785156 0.757812 7.886719 0.757812 12.945312 C 0.757812 18.003906 6.835938 23.203125 9.570312 25.554688 C 12.128906 27.75 19 34.214844 19 34.214844 C 19 34.214844 25.871094 27.75 28.429688 25.554688 C 31.164062 23.203125 37.242188 18.003906 37.242188 12.945312 C 37.242188 7.886719 33.144531 3.785156 28.085938 3.785156 Z M 28.085938 3.785156 "/>
<path style=" stroke:none;fill-rule:nonzero;fill:rgb(0%,0%,0%);fill-opacity:1;" d="M 19 34.972656 C 18.8125 34.972656 18.625 34.902344 18.480469 34.765625 C 18.414062 34.703125 11.59375 28.285156 9.078125 26.128906 L 9.050781 26.105469 C 6.113281 23.582031 0 18.335938 0 12.945312 C 0 7.476562 4.445312 3.027344 9.914062 3.027344 C 13.925781 3.027344 17.453125 5.445312 19 8.960938 C 20.546875 5.445312 24.074219 3.027344 28.085938 3.027344 C 33.554688 3.027344 38 7.476562 38 12.945312 C 38 18.335938 31.886719 23.582031 28.949219 26.105469 L 28.921875 26.128906 C 26.40625 28.285156 19.585938 34.703125 19.519531 34.765625 C 19.375 34.902344 19.1875 34.972656 19 34.972656 Z M 9.914062 4.542969 C 5.285156 4.542969 1.515625 8.3125 1.515625 12.945312 C 1.515625 17.640625 7.488281 22.765625 10.039062 24.957031 L 10.0625 24.980469 C 12.195312 26.808594 17.347656 31.625 19 33.175781 C 20.652344 31.625 25.804688 26.808594 27.9375 24.980469 L 27.960938 24.957031 C 30.511719 22.765625 36.484375 17.640625 36.484375 12.945312 C 36.484375 8.3125 32.714844 4.542969 28.085938 4.542969 C 23.871094 4.542969 20.292969 7.6875 19.75 11.855469 C 19.699219 12.230469 19.378906 12.511719 19 12.511719 C 18.621094 12.511719 18.300781 12.230469 18.25 11.855469 C 17.707031 7.6875 14.128906 4.542969 9.914062 4.542969 Z M 9.914062 4.542969 "/>
<path style=" stroke:none;fill-rule:nonzero;fill:rgb(0%,0%,0%);fill-opacity:1;" d="M 19.078125 31.191406 C 18.890625 31.191406 18.707031 31.121094 18.5625 30.984375 C 16.519531 29.082031 12.847656 25.671875 11.148438 24.214844 L 11.125 24.191406 C 10.839844 23.945312 10.515625 23.667969 10.167969 23.363281 C 9.851562 23.089844 9.820312 22.609375 10.097656 22.296875 C 10.371094 21.980469 10.851562 21.949219 11.164062 22.222656 C 11.507812 22.523438 11.828125 22.800781 12.113281 23.042969 L 12.132812 23.0625 C 13.769531 24.464844 17.089844 27.542969 19.59375 29.878906 C 19.898438 30.164062 19.914062 30.644531 19.628906 30.949219 C 19.480469 31.109375 19.277344 31.191406 19.078125 31.191406 Z M 19.078125 31.191406 "/>
<path style=" stroke:none;fill-rule:nonzero;fill:rgb(0%,0%,0%);fill-opacity:1;" d="M 8.574219 21.632812 C 8.382812 21.632812 8.195312 21.5625 8.046875 21.417969 C 7.546875 20.9375 7.074219 20.453125 6.640625 19.984375 C 6.355469 19.675781 6.375 19.199219 6.683594 18.914062 C 6.988281 18.628906 7.464844 18.648438 7.75 18.957031 C 8.167969 19.402344 8.621094 19.867188 9.101562 20.332031 C 9.402344 20.625 9.410156 21.105469 9.117188 21.40625 C 8.96875 21.558594 8.773438 21.632812 8.574219 21.632812 Z M 8.574219 21.632812 "/>
</g>
</svg>
